<?xml version="1.0" encoding="utf-8"?>
<!-- Generator: Adobe Illustrator 22.1.0, SVG Export Plug-In . SVG Version: 6.00 Build 0)  -->
<svg version="1.1" id="Calque_1" xmlns="http://www.w3.org/2000/svg" xmlns:xlink="http://www.w3.org/1999/xlink" x="0px" y="0px"
	 viewBox="0 0 311.9 186.5" style="enable-background:new 0 0 311.9 186.5;" xml:space="preserve">
<style type="text/css">
	.st0{fill:#FFFFFF;}
</style>
<polygon class="st0" points="35,148.9 35,162 33.6,162 33.6,152.2 31.5,154.3 29.4,152.2 29.4,162 28,162 28,148.9 31.5,152.4 "/>
<path class="st0" d="M39.1,158.3h2.7l-1.3-6.7L39.1,158.3z M36.9,162l2.6-13.2h1.8L44,162h-1.4l-0.5-2.4h-3.3l-0.5,2.4H36.9z"/>
<polygon class="st0" points="49.1,148.9 49.1,150.3 48.2,150.3 48.2,160.6 49.1,160.6 49.1,162 45.8,162 45.8,160.6 46.8,160.6 
	46.8,150.3 45.8,150.3 45.8,148.9 "/>
<g>
	<path class="st0" d="M52.9,151.7c0-1.9,0.9-2.8,2.8-2.8h0.5v1.4h-0.5c-0.9,0-1.4,0.5-1.4,1.4v7.5c0,1.9-0.9,2.8-2.8,2.8H51v-1.4
		h0.5c0.9,0,1.4-0.5,1.4-1.4V151.7z"/>
	<path class="st0" d="M61.4,160.6c0.9,0,1.4-0.5,1.4-1.4v-7.5c0-0.9-0.5-1.4-1.4-1.4h-0.5c-0.9,0-1.4,0.5-1.4,1.4v7.5
		c0,0.9,0.5,1.4,1.4,1.4H61.4z M61.4,148.9c1.9,0,2.8,0.9,2.8,2.8v7.5c0,1.9-0.9,2.8-2.8,2.8h-0.5c-1.9,0-2.8-0.9-2.8-2.8v-7.5
		c0-1.9,0.9-2.8,2.8-2.8H61.4z"/>
</g>
<polygon class="st0" points="72.2,148.9 72.2,162 70.8,162 70.8,155.5 67.5,152.2 67.5,162 66.1,162 66.1,148.9 70.8,153.6 
	70.8,148.9 "/>
<g>
	<path class="st0" d="M84,148.9v10.4c0,1.9-0.9,2.8-2.8,2.8h-0.5c-1.9,0-2.8-0.9-2.8-2.8v-10.4h1.4v10.4c0,0.9,0.5,1.4,1.4,1.4h0.5
		c0.9,0,1.4-0.5,1.4-1.4v-10.4H84z"/>
</g>
<polygon class="st0" points="92,148.9 92,162 90.5,162 90.5,155.5 87.3,152.2 87.3,162 85.8,162 85.8,148.9 90.5,153.6 90.5,148.9 
	"/>
<polygon class="st0" points="97.1,148.9 97.1,150.3 96.2,150.3 96.2,160.6 97.1,160.6 97.1,162 93.8,162 93.8,160.6 94.8,160.6 
	94.8,150.3 93.8,150.3 93.8,148.9 "/>
<polygon class="st0" points="105.6,148.9 102.9,162 101.2,162 98.5,148.9 100,148.9 102.1,159.4 104.2,148.9 "/>
<polygon class="st0" points="111.2,148.9 111.2,150.3 108.4,150.3 108.4,152.6 110.7,152.6 110.7,154 108.4,154 108.4,160.6 
	111.7,160.6 111.7,162 107,162 107,148.9 "/>
<g>
	<path class="st0" d="M115,150.3v6.6h1.6c0.9,0,1.4-0.5,1.4-1.4v-3.8c0-0.9-0.5-1.4-1.4-1.4H115z M116.6,148.9
		c1.9,0,2.8,0.9,2.8,2.8v3.8c0,1.3-0.5,2.2-1.4,2.6l1.6,4H118l-1.5-3.8H115v3.8h-1.4v-13.2H116.6z"/>
	<path class="st0" d="M123.5,151.7c0-1.9,0.9-2.8,2.8-2.8h0.5v1.4h-0.5c-0.9,0-1.4,0.5-1.4,1.4v7.5c0,1.9-0.9,2.8-2.8,2.8h-0.5v-1.4
		h0.5c0.9,0,1.4-0.5,1.4-1.4V151.7z"/>
</g>
<polygon class="st0" points="131.9,148.9 131.9,150.3 131,150.3 131,160.6 131.9,160.6 131.9,162 128.6,162 128.6,160.6 
	129.6,160.6 129.6,150.3 128.6,150.3 128.6,148.9 "/>
<polygon class="st0" points="139.9,148.9 139.9,150.3 137.6,150.3 137.6,162 136.2,162 136.2,150.3 133.8,150.3 133.8,148.9 "/>
<path class="st0" d="M144,158.3h2.7l-1.3-6.7L144,158.3z M141.8,162l2.6-13.2h1.8l2.6,13.2h-1.4l-0.5-2.4h-3.3l-0.5,2.4H141.8z"/>
<polygon class="st0" points="154,148.9 154,150.3 153.1,150.3 153.1,160.6 154,160.6 154,162 150.7,162 150.7,160.6 151.7,160.6 
	151.7,150.3 150.7,150.3 150.7,148.9 "/>
<g>
	<path class="st0" d="M157.3,150.3v6.6h1.6c0.9,0,1.4-0.5,1.4-1.4v-3.8c0-0.9-0.5-1.4-1.4-1.4H157.3z M158.9,148.9
		c1.9,0,2.8,0.9,2.8,2.8v3.8c0,1.3-0.5,2.2-1.4,2.6l1.6,4h-1.6l-1.5-3.8h-1.6v3.8h-1.4v-13.2H158.9z"/>
</g>
<polygon class="st0" points="168.1,148.9 168.1,150.3 165.3,150.3 165.3,152.6 167.7,152.6 167.7,154 165.3,154 165.3,160.6 
	168.6,160.6 168.6,162 163.9,162 163.9,148.9 "/>
<polygon class="st0" points="178.5,148.9 178.5,150.3 175.7,150.3 175.7,152.6 178,152.6 178,154 175.7,154 175.7,162 174.2,162 
	174.2,148.9 "/>
<g>
	<path class="st0" d="M181.8,150.3v6.6h1.6c0.9,0,1.4-0.5,1.4-1.4v-3.8c0-0.9-0.5-1.4-1.4-1.4H181.8z M183.4,148.9
		c1.9,0,2.8,0.9,2.8,2.8v3.8c0,1.3-0.5,2.2-1.4,2.6l1.6,4h-1.6l-1.5-3.8h-1.6v3.8h-1.4v-13.2H183.4z"/>
</g>
<path class="st0" d="M190.5,158.3h2.7l-1.3-6.7L190.5,158.3z M188.4,162l2.6-13.2h1.8l2.6,13.2H194l-0.5-2.4h-3.3l-0.5,2.4H188.4z"
	/>
<polygon class="st0" points="203.4,148.9 203.4,162 202,162 202,155.5 198.7,152.2 198.7,162 197.3,162 197.3,148.9 202,153.6 
	202,148.9 "/>
<g>
	<path class="st0" d="M210,148.9v1.4h-1.9c-0.9,0-1.4,0.5-1.4,1.4v7.5c0,0.9,0.5,1.4,1.4,1.4h1.9v1.4h-1.9c-1.9,0-2.8-0.9-2.8-2.8
		v-7.5c0-1.9,0.9-2.8,2.8-2.8H210z"/>
	<path class="st0" d="M215.2,160.6c0.9,0,1.4-0.5,1.4-1.4v-7.5c0-0.9-0.5-1.4-1.4-1.4h-0.5c-0.9,0-1.4,0.5-1.4,1.4v7.5
		c0,0.9,0.5,1.4,1.4,1.4H215.2z M215.2,148.9c1.9,0,2.8,0.9,2.8,2.8v7.5c0,1.9-0.9,2.8-2.8,2.8h-0.5c-1.9,0-2.8-0.9-2.8-2.8v-7.5
		c0-1.9,0.9-2.8,2.8-2.8H215.2z"/>
</g>
<polygon class="st0" points="230.7,148.9 230.7,162 229.3,162 229.3,152.2 227.2,154.3 225,152.2 225,162 223.6,162 223.6,148.9 
	227.2,152.4 "/>
<polygon class="st0" points="236.8,148.9 236.8,150.3 234,150.3 234,152.6 236.3,152.6 236.3,154 234,154 234,160.6 237.3,160.6 
	237.3,162 232.6,162 232.6,148.9 "/>
<polygon class="st0" points="238.7,162 241.6,155.5 238.7,148.9 240.3,148.9 242.5,153.6 244.6,148.9 246.2,148.9 243.3,155.5 
	246.2,162 244.6,162 242.5,157.3 240.3,162 "/>
<polygon class="st0" points="250.9,148.9 250.9,150.3 250,150.3 250,160.6 250.9,160.6 250.9,162 247.6,162 247.6,160.6 
	248.6,160.6 248.6,150.3 247.6,150.3 247.6,148.9 "/>
<g>
	<path class="st0" d="M257.5,148.9v1.4h-1.9c-0.9,0-1.4,0.5-1.4,1.4v7.5c0,0.9,0.5,1.4,1.4,1.4h1.9v1.4h-1.9c-1.9,0-2.8-0.9-2.8-2.8
		v-7.5c0-1.9,0.9-2.8,2.8-2.8H257.5z"/>
</g>
<path class="st0" d="M261.6,158.3h2.7l-1.3-6.7L261.6,158.3z M259.4,162l2.6-13.2h1.8l2.6,13.2H265l-0.5-2.4h-3.3l-0.5,2.4H259.4z"
	/>
<polygon class="st0" points="271.6,148.9 271.6,150.3 270.7,150.3 270.7,160.6 271.6,160.6 271.6,162 268.3,162 268.3,160.6 
	269.2,160.6 269.2,150.3 268.3,150.3 268.3,148.9 "/>
<polygon class="st0" points="279.6,148.9 279.6,162 278.2,162 278.2,155.5 274.9,152.2 274.9,162 273.5,162 273.5,148.9 
	278.2,153.6 278.2,148.9 "/>
<polygon class="st0" points="285.7,148.9 285.7,150.3 282.9,150.3 282.9,152.6 285.2,152.6 285.2,154 282.9,154 282.9,160.6 
	286.2,160.6 286.2,162 281.5,162 281.5,148.9 "/>
<polygon class="st0" points="56.9,86.8 56.9,141.3 51.1,141.3 51.1,100.5 42.3,109.2 33.6,100.5 33.6,141.3 27.7,141.3 27.7,86.8 
	42.3,101.4 "/>
<g>
	<path class="st0" d="M90,86.8v42.8c0,7.8-3.9,11.7-11.7,11.7h-1.9c-7.8,0-11.7-3.9-11.7-11.7V86.8h5.8v42.8c0,3.9,1.9,5.8,5.8,5.8
		h1.9c3.9,0,5.8-1.9,5.8-5.8V86.8H90z"/>
</g>
<polygon class="st0" points="115.3,86.8 115.3,92.7 103.6,92.7 103.6,102.4 113.3,102.4 113.3,108.2 103.6,108.2 103.6,141.3 
	97.8,141.3 97.8,86.8 "/>
<g>
	<path class="st0" d="M128.9,92.7v27.2h6.8c3.9,0,5.8-1.9,5.8-5.8V98.5c0-3.9-1.9-5.8-5.8-5.8H128.9z M135.7,86.8
		c7.8,0,11.7,3.9,11.7,11.7V114c0,5.4-1.9,9-5.7,10.6l6.6,16.6h-6.8l-6.2-15.6h-6.4v15.6H123V86.8H135.7z"/>
</g>
<path class="st0" d="M165,125.7h11.1l-5.6-27.8L165,125.7z M156.1,141.3L167,86.8h7.2l10.9,54.4h-5.8l-1.9-9.7h-13.5l-1.9,9.7H156.1
	z"/>
<polygon class="st0" points="222.1,86.8 222.1,141.3 216.2,141.3 216.2,100.5 207.5,109.2 198.7,100.5 198.7,141.3 192.9,141.3 
	192.9,86.8 207.5,101.4 "/>
<polygon class="st0" points="247.3,86.8 247.3,92.7 235.7,92.7 235.7,102.4 245.4,102.4 245.4,108.2 235.7,108.2 235.7,135.4 
	249.3,135.4 249.3,141.3 229.8,141.3 229.8,86.8 "/>
<polygon class="st0" points="255.1,141.3 267.2,114 255.1,86.8 261.9,86.8 270.7,106.4 279.4,86.8 286.2,86.8 274.1,114 
	286.2,141.3 279.4,141.3 270.7,121.7 261.9,141.3 "/>
<g>
	<path class="st0" d="M187.6,38.8c0-0.9-0.1-2.2-0.4-3.5c-0.3-1.3-0.6-2.6-1.2-3.8c-0.3-0.7-0.8-1.4-1.3-2c-1.1-1.1-2.4-1.7-4-1.7
		c-0.4,0-0.9,0-1.3,0.1c-1.1,0.1-2.1,0.4-3.1,0.8c-1.1,0.4-2.1,1.1-3.1,1.7c-1,0.6-2.1,1.2-3.2,1.6c-1.5,0.5-3,0.4-4.5,0.1
		c-0.3-0.1-0.4-0.2-0.5-0.5c-0.1-0.5-0.2-1.1-0.3-1.6c-0.2-1.4,0.1-2.8,0.7-4.1c0.4-0.8,0.9-1.6,1.3-2.4c0.4-0.7,0.8-1.5,1.2-2.2
		c0.7-1.4,1-2.9,1.1-4.5c0.1-0.8-0.1-1.7-0.4-2.5c-0.4-1.2-1.2-2-2.2-2.7c-1-0.7-2.1-1.1-3.3-1.4c-2.1-0.5-4.3-0.8-6.5-0.7
		c-1.4,0.1-2.8,0.3-4.2,0.7c-1.5,0.4-3,1-4.2,2.1c-0.9,0.8-1.5,1.9-1.7,3.1c-0.1,0.7-0.1,1.5,0,2.2c0.1,1.4,0.5,2.8,1.2,4
		c0.6,1.2,1.3,2.3,2,3.5c0.5,1,1,2,1.1,3.1c0.2,1.2,0.1,2.3-0.2,3.5c-0.1,0.2-0.2,0.4-0.4,0.4c-0.3,0.1-0.6,0.1-0.9,0.2
		c-1.5,0.3-3,0.1-4.4-0.5c-0.8-0.4-1.6-0.8-2.4-1.3c-0.9-0.5-1.8-1-2.7-1.4c-1.3-0.6-2.6-0.9-4-1c-0.6-0.1-1.3,0-1.9,0.1
		c-1.7,0.3-2.8,1.3-3.7,2.7c-0.6,0.9-1,1.9-1.3,3c-0.4,1.6-0.6,3.2-0.7,4.8c0,0.6,0.1,1.2-0.1,1.8c0,0,0,0.1,0,0.1
		c0,0.2,0.1,0.4,0.1,0.6c0.1,1.6,0.4,3.2,0.9,4.7c0.4,1.2,0.9,2.2,1.7,3.2c1.1,1.2,2.5,1.9,4.1,1.9c2.2,0,4.2-0.6,6-1.7
		c0.9-0.5,1.8-1.1,2.7-1.6c1.5-0.9,3.2-1.3,5-1.2c0.5,0.1,1.1,0.2,1.6,0.3c0.2,0,0.3,0.2,0.4,0.4c0.2,0.8,0.3,1.6,0.3,2.5
		c0,1.2-0.3,2.4-0.9,3.5c-0.4,0.8-0.8,1.5-1.2,2.3c-0.4,0.7-0.7,1.3-1.1,2c-0.6,1.4-1,2.8-1.1,4.3c-0.1,0.9,0,1.7,0.2,2.5
		c0.4,1.3,1.3,2.3,2.4,3c1.1,0.7,2.4,1.2,3.7,1.5c1.8,0.4,3.6,0.6,5.4,0.5c1.4,0,2.7-0.2,4-0.5c1.5-0.3,2.9-0.8,4.2-1.7
		c1.7-1.1,2.6-2.7,2.6-4.8c0-0.6-0.1-1.2-0.2-1.8c-0.2-1.2-0.5-2.3-1.1-3.3c-0.5-1-1.2-2-1.7-3.1c-0.4-0.7-0.7-1.5-1.1-2.3
		c-0.3-0.7-0.4-1.5-0.4-2.2c0-0.9,0.1-1.7,0.3-2.6c0-0.2,0.1-0.3,0.4-0.4c1.2-0.3,2.4-0.4,3.7-0.2c1.2,0.2,2.4,0.8,3.4,1.4
		c0.8,0.5,1.6,1,2.4,1.4c1.9,1,3.8,1.5,5.9,1.5c0.8,0,1.5-0.2,2.2-0.6c1.2-0.6,2.1-1.5,2.7-2.7c0.6-1.1,0.9-2.2,1.2-3.3
		C187.4,42.5,187.6,40.9,187.6,38.8 M147.9,49.4c-0.9,0-1.7,0.1-2.5,0.4c-1.3,0.5-2.4,1.1-3.6,1.8c-1,0.6-2.1,1.1-3.2,1.5
		c-0.7,0.2-1.5,0.5-2.2,0.6c-0.9,0.2-1.7,0.3-2.6,0.2c-1.6-0.1-3-0.5-4.3-1.4c-0.6-0.4-1.1-0.9-1.5-1.5c-0.8-1-1.3-2.1-1.8-3.3
		c-0.6-1.7-1-3.4-1.2-5.2c-0.2-1.5-0.2-3-0.1-4.4c0.1-1.4,0.2-2.8,0.5-4.2c0.3-1.4,0.7-2.8,1.3-4.1c0.5-1.1,1.2-2.1,2.1-2.9
		c1.1-1,2.4-1.6,4-1.8c1.4-0.2,2.8,0,4.2,0.2c0.7,0.1,1.4,0.4,2,0.6c1.4,0.5,2.7,1.3,4.1,2c1,0.5,1.9,1,3,1.3
		c0.4,0.1,0.9,0.2,1.3,0.2c0.3,0,0.4-0.1,0.4-0.4c-0.1-1-0.4-2-0.9-2.9c-0.4-0.8-0.8-1.5-1.2-2.2c-0.7-1.2-1.4-2.4-1.8-3.8
		c-0.4-1.2-0.6-2.4-0.7-3.7c-0.1-1.3,0.1-2.5,0.5-3.7c0.3-0.8,0.7-1.5,1.3-2.2c1-1.1,2.3-2,3.7-2.6c1.1-0.5,2.2-0.8,3.3-1.1
		c1.2-0.3,2.5-0.5,3.8-0.6c0.8-0.1,1.7-0.1,2.5-0.1c0.6,0,1.2,0.1,1.8,0.1c1,0.1,2,0.2,2.9,0.4c1.1,0.2,2.1,0.5,3.1,0.8
		c1.2,0.5,2.4,1.1,3.4,1.9c0.5,0.4,0.9,0.9,1.3,1.3c0.6,0.7,1,1.6,1.2,2.5c0.3,1.1,0.3,2.2,0.2,3.4c-0.1,0.8-0.2,1.6-0.4,2.3
		c-0.3,1.2-0.8,2.3-1.4,3.4c-0.6,1-1.2,2.1-1.7,3.1c-0.5,0.9-0.8,1.9-0.9,2.9c0,0.1,0,0.1,0,0.2c-0.1,0.6,0,0.6,0.6,0.5
		c1.4-0.2,2.7-0.7,4-1.4c1.2-0.7,2.3-1.3,3.6-1.9c1.6-0.8,3.4-1.2,5.2-1.2c0.8,0,1.7,0,2.5,0.2c0.9,0.2,1.7,0.6,2.4,1.1
		c1.2,0.8,2,1.9,2.7,3.1c0.5,1,1,2,1.2,3.1c0.2,0.9,0.4,1.7,0.6,2.6c0.1,1,0.2,2,0.3,3c0,0.5,0.1,0.9,0.1,1.4c0,0.6,0,1.2-0.1,1.8
		c-0.1,0.5,0,1-0.1,1.5c-0.2,1.2-0.4,2.4-0.7,3.5c-0.2,0.7-0.4,1.5-0.7,2.2c-0.6,1.5-1.5,2.9-2.8,3.9c-0.7,0.5-1.5,0.9-2.3,1.2
		c-1.6,0.5-3.3,0.4-4.9,0.1c-1.6-0.3-3.2-0.9-4.6-1.7c-0.9-0.5-1.8-1-2.8-1.5c-1.1-0.6-2.3-0.9-3.5-1.1c-0.3,0-0.4,0-0.4,0.3
		c0.1,0.6,0.2,1.2,0.3,1.7c0.3,1.2,0.9,2.2,1.6,3.3c0.8,1.3,1.5,2.6,2,4c0.3,1,0.6,1.9,0.7,3c0.1,0.6,0.2,1.3,0.1,1.9
		c-0.1,1.7-0.6,3.2-1.7,4.5c-0.9,1.1-2.1,1.9-3.4,2.5c-0.9,0.4-1.8,0.7-2.8,1c-1.5,0.4-3,0.6-4.5,0.7c-0.7,0-1.4,0.1-2.1,0.1
		c-0.6,0-1.3,0-1.9-0.1c-1-0.1-2-0.2-3-0.4c-2-0.3-4-1-5.8-2.1c-0.7-0.4-1.3-0.9-1.8-1.5c-1-1.1-1.6-2.4-1.9-3.8
		c-0.2-1.3-0.1-2.5,0.1-3.8c0.3-1.8,1-3.4,1.8-5c0.5-1,1.1-1.9,1.6-2.8c0.5-1,0.8-2,0.9-3.1C147.9,49.7,147.9,49.6,147.9,49.4"/>
	<path class="st0" d="M129.9,11.7c0.1,0,0.2,0.1,0.3,0.1c0.8,0.3,1.5,0.6,2.2,1c1.8,0.9,3.4,2.1,5,3.5c1.2,1,2.3,2.1,3.4,3.2
		c1.3,1.3,2.5,2.8,3.4,4.4c0.6,1,1.2,2.1,1.5,3.3c0,0.1,0,0.2,0.1,0.2c0,0,0,0.1,0,0.2c-0.1,0-0.2,0-0.3,0c-0.5-0.2-1.1-0.3-1.6-0.5
		c-1.6-0.7-3-1.6-4.4-2.6c-1-0.8-2-1.7-2.9-2.6c-1-1-1.9-2.1-2.8-3.2c-1.1-1.3-2-2.7-2.8-4.1c-0.4-0.7-0.7-1.4-1-2.1
		C129.9,12.1,129.9,11.9,129.9,11.7C129.9,11.7,129.9,11.7,129.9,11.7"/>
	<path class="st0" d="M185.5,11.4c-0.1,0.3-0.1,0.4-0.2,0.6c-0.4,0.9-0.8,1.9-1.4,2.7c-0.4,0.7-0.9,1.4-1.4,2.1
		c-0.5,0.7-1,1.3-1.5,1.9c-1,1.3-2.2,2.5-3.4,3.7c-0.8,0.8-1.7,1.6-2.7,2.3c-0.7,0.4-1.3,0.9-1.9,1.3c-1,0.6-2.1,1.1-3.3,1.4
		c0,0-0.1,0-0.1,0c0-0.4,0.1-0.7,0.2-1c0.4-1.1,0.9-2.1,1.6-3.1c0.5-0.7,1-1.5,1.5-2.1c0.6-0.8,1.2-1.5,1.9-2.2
		c0.8-0.8,1.6-1.6,2.5-2.4c1-0.9,2-1.7,3.1-2.5c1-0.7,2-1.3,3.1-1.9c0.5-0.2,1-0.4,1.5-0.6C185.2,11.4,185.3,11.4,185.5,11.4"/>
	<path class="st0" d="M169.8,51.3c0.1,0,0.2,0,0.3,0c1,0.2,1.9,0.6,2.8,1.1c1.5,0.8,2.9,1.8,4.2,2.9c0.7,0.6,1.4,1.3,2,2
		c0.7,0.8,1.5,1.6,2.1,2.4c1,1.2,2,2.5,2.8,3.9c0.5,0.9,1,1.7,1.4,2.6c0.1,0.3,0.3,0.5,0.2,0.9c-0.1,0-0.3,0-0.4-0.1
		c-1.3-0.5-2.5-1.1-3.7-1.9c-1.6-1-3-2.1-4.4-3.4c-1.1-1-2.2-2-3.2-3.2c-0.6-0.7-1.1-1.4-1.7-2.1c-0.4-0.6-0.8-1.1-1.2-1.7
		c-0.6-0.9-1-1.9-1.3-2.9C169.8,51.7,169.8,51.5,169.8,51.3"/>
	<path class="st0" d="M130.1,67.3c0.1-0.3,0.1-0.4,0.2-0.6c0.4-1,0.9-1.9,1.4-2.8c0.7-1.1,1.5-2.3,2.3-3.3c0.7-0.9,1.5-1.7,2.2-2.6
		c1-1.1,2-2.1,3.1-3c1.4-1.2,2.9-2.2,4.6-3c0.5-0.2,1.1-0.4,1.6-0.6c0.1,0,0.2,0,0.4,0c0,0.2-0.1,0.3-0.1,0.5
		c-0.3,1.1-0.8,2.2-1.4,3.2c-0.9,1.5-2,2.9-3.2,4.3c-1.6,1.7-3.3,3.3-5.2,4.7c-1.4,1.1-2.9,2-4.5,2.8c-0.4,0.2-0.8,0.3-1.1,0.5
		C130.3,67.3,130.2,67.3,130.1,67.3"/>
	<path class="st0" d="M157.7,44.6c0.9,0,1.6-0.2,2.3-0.5c1.1-0.5,1.9-1.4,2.5-2.4c0.1-0.2,0.2-0.5,0.3-0.7c0.1-0.2,0.1-0.3,0.2-0.5
		c0.2-0.7,0.1-1.4,0-2c-0.5-2-1.8-3.4-3.8-3.9c-1.4-0.4-2.7-0.2-4,0.6c-1.3,0.8-2.1,1.9-2.5,3.4c-0.1,0.6-0.2,1.3-0.1,1.9
		c0.2,0.8,0.6,1.6,1.1,2.3C154.8,43.9,156.1,44.5,157.7,44.6 M165.4,39.4c0.1,4.1-3.5,7.7-7.7,7.6c-4,0-7.7-3.5-7.5-7.7
		c-0.1-3.7,3.1-7.6,7.6-7.6C162.2,31.8,165.4,35.6,165.4,39.4"/>
	<path class="st0" d="M157.7,17.9c0.2,0.2,0.3,0.4,0.4,0.6c0.4,0.8,0.7,1.7,0.9,2.6c0.4,1.7,0.6,3.5,0.8,5.2
		c0.1,1.1,0.2,2.2,0.1,3.3c0,0.1,0,0.2,0,0.2c0,0.1-0.1,0.2-0.2,0.2c-0.1,0-0.2,0-0.2,0c-1.2,0-2.4,0-3.6,0c0,0-0.1,0-0.1,0
		c-0.4,0-0.4,0-0.4-0.4c0-0.6,0-1.1,0-1.7c0.1-1,0.2-2.1,0.3-3.1c0.2-1.6,0.4-3.1,0.8-4.6c0.2-0.7,0.5-1.3,0.7-2
		C157.4,18.2,157.5,18,157.7,17.9"/>
	<path class="st0" d="M157.9,61c-0.3-0.3-0.5-0.6-0.6-1c-0.5-1.4-0.9-2.9-1.1-4.3c-0.1-0.8-0.3-1.6-0.3-2.4
		c-0.1-1.4-0.3-2.8-0.3-4.1c0-0.1,0-0.2,0-0.3c0-0.1,0.1-0.2,0.2-0.2c0.1,0,0.2,0,0.2,0c1.2,0,2.4,0,3.5,0c0.5,0,0.5,0,0.5,0.5
		c0.1,1.4,0,2.7-0.2,4c-0.1,1.1-0.3,2.2-0.5,3.3c-0.2,1-0.4,2-0.7,3c-0.1,0.4-0.3,0.8-0.5,1.2C158.1,60.7,158,60.8,157.9,61"/>
	<path class="st0" d="M136.3,39.5c0.3-0.4,0.7-0.5,1.1-0.7c1.3-0.5,2.7-0.8,4.1-1c2-0.3,4-0.5,6-0.6c0.2,0,0.5,0,0.7,0
		c0.3,0,0.3,0,0.3,0.3c0,0.3,0,0.7,0,1c0,0.8,0,1.6,0,2.4c0,0.7,0.1,0.7-0.7,0.7c-1.7,0-3.4-0.1-5.1-0.4c-0.9-0.1-1.8-0.3-2.7-0.5
		c-0.4-0.1-0.8-0.2-1.2-0.3c-0.8-0.1-1.6-0.4-2.3-0.8C136.6,39.7,136.5,39.6,136.3,39.5"/>
	<path class="st0" d="M179.6,39.4c-0.3,0.4-0.7,0.5-1.1,0.7c-1.3,0.5-2.7,0.8-4.1,1c-2,0.3-4,0.5-6,0.6c-0.2,0-0.5,0-0.7,0
		c-0.3,0-0.3,0-0.3-0.3c0-0.3,0-0.7,0-1c0-0.8,0-1.6,0-2.4c0-0.7-0.1-0.7,0.7-0.7c1.7,0,3.4,0.1,5.1,0.4c0.9,0.1,1.8,0.3,2.7,0.5
		c0.4,0.1,0.8,0.2,1.2,0.3c0.8,0.1,1.6,0.4,2.3,0.8C179.4,39.2,179.5,39.3,179.6,39.4"/>
	<path class="st0" d="M157.7,13.4c0.2,0.3,0.3,0.6,0.3,0.8c0.1,0.6,0.1,1.1,0.2,1.7c0,0.3,0,0.3-0.3,0.3c-0.6,0.1-0.7,0-0.7-0.6
		c0-0.6,0.2-1.2,0.2-1.8C157.5,13.7,157.6,13.6,157.7,13.4"/>
	<path class="st0" d="M157.9,65.3c-0.1-0.1-0.1-0.2-0.2-0.3c-0.1-0.6-0.2-1.2-0.3-1.8c0-0.1,0-0.3,0.2-0.4c0.2,0,0.4,0,0.7,0.1
		c0,0,0.1,0.1,0.1,0.2C158.3,63.9,158.2,64.6,157.9,65.3C157.9,65.3,157.9,65.3,157.9,65.3"/>
	<path class="st0" d="M131.9,39.6c0.5-0.3,1.5-0.5,2.4-0.4c0,0.1,0,0.3,0,0.4c0,0.2-0.1,0.3-0.3,0.3
		C133.3,39.9,132.6,39.9,131.9,39.6C132,39.6,132,39.6,131.9,39.6"/>
	<path class="st0" d="M181.4,39.7c0-0.1-0.1-0.2-0.1-0.3c-0.1-0.4,0-0.5,0.4-0.5c0.4,0,0.8,0.1,1.1,0.1c0.1,0,0.1,0,0.2,0.1
		c0.1,0.1,0.1,0.1,0.2,0.2c-0.1,0.1-0.1,0.1-0.2,0.2C182.5,39.6,181.9,39.6,181.4,39.7"/>
	<path class="st0" d="M157.6,40.9C157.6,40.9,157.6,40.9,157.6,40.9c0.1,0,0.2,0,0.3,0c0,0,0,0,0,0c-0.1,0-0.1,0-0.2,0
		C157.7,40.8,157.6,40.9,157.6,40.9 M156.9,40.8c0.1-0.1,0.2-0.1,0.2-0.1c-0.6,0-0.8-0.5-0.9-0.9c-0.2-0.6,0-1.2,0.5-1.6
		c0.4-0.4,1-0.5,1.6-0.3c1,0.4,1.4,1.4,0.9,2.4c-0.2,0.4-0.5,0.6-0.9,0.7C157.8,41.2,157.4,41.1,156.9,40.8"/>
</g>
<g>
	<rect x="26.2" y="67.2" class="st0" width="91.4" height="2"/>
</g>
<g>
	<rect x="199.4" y="67.3" class="st0" width="87.7" height="2"/>
</g>
<g>
	<path class="st0" d="M101.9,177.6c-1.3,1.4-4,2.5-5.9,2.5H14.1c-1.9,0-3.5-1.2-3.5-2.7c0-1.5,1.6-2.7,3.5-2.7h87
		c1.9,0,2.4,1.1,1.1,2.5L101.9,177.6z"/>
	<path class="st0" d="M301.3,177.5c0,1.5-1.6,2.7-3.5,2.7h-80c-1.9,0-4.6-1.1-5.9-2.5l-0.3-0.3c-1.3-1.4-0.8-2.5,1.1-2.5h85
		C299.7,174.8,301.3,176,301.3,177.5"/>
	<path class="st0" d="M208.3,177.7c1.5,1.4,1.1,2.5-0.9,2.5H105.9c-2,0-2.4-1-0.8-2.3l0.9-0.7c1.6-1.3,4.5-2.3,6.6-2.3h88.8
		c2,0,4.9,1.1,6.4,2.5L208.3,177.7z"/>
</g>
</svg>
